<?xml version="1.0" standalone="no"?>
<!DOCTYPE svg PUBLIC "-//W3C//DTD SVG 20010904//EN"
 "http://www.w3.org/TR/2001/REC-SVG-20010904/DTD/svg10.dtd">
<svg version="1.0" xmlns="http://www.w3.org/2000/svg"
 width="200.000000pt" height="200.000000pt" viewBox="0 0 200.000000 200.000000"
 preserveAspectRatio="xMidYMid meet">

<g transform="translate(0.000000,200.000000) scale(0.100000,-0.100000)"
fill="#000000" stroke="none">
<path d="M952 1248 c-5 -7 -13 -23 -16 -35 -7 -23 -10 -23 -177 -23 -144 0
-169 -2 -169 -15 0 -10 11 -15 35 -15 33 0 35 -2 35 -35 0 -19 -4 -35 -10 -35
-5 0 -10 5 -10 10 0 6 -9 10 -20 10 -11 0 -20 -6 -20 -13 0 -38 71 -52 90 -18
5 11 10 33 10 50 0 21 5 31 15 31 12 0 15 -14 15 -70 0 -56 3 -70 15 -70 12 0
15 14 15 70 0 63 2 70 20 70 18 0 20 -7 20 -70 0 -63 2 -70 20 -70 18 0 20 7
20 70 l0 70 45 0 c25 0 45 -4 45 -10 0 -5 -11 -10 -24 -10 -33 0 -46 -38 -20
-57 10 -7 26 -13 35 -13 10 0 20 -4 24 -9 8 -15 -15 -25 -28 -12 -13 13 -47
15 -47 2 0 -19 30 -32 67 -29 35 3 38 5 38 33 0 25 -5 32 -32 40 -41 12 -43
25 -3 25 23 0 30 4 30 20 0 13 7 20 20 20 18 0 20 -7 20 -70 0 -56 3 -70 15
-70 12 0 15 14 15 70 0 56 3 70 15 70 8 0 15 6 15 14 0 8 -7 16 -15 20 -8 3
-15 14 -15 25 0 35 -66 56 -88 29z m56 -41 c2 -12 -3 -17 -17 -17 -12 0 -21 6
-21 13 0 31 32 34 38 4z"/>
<path d="M350 1196 c0 -8 -9 -18 -20 -21 -11 -3 -25 -15 -30 -26 -6 -10 -17
-19 -25 -19 -11 0 -14 -10 -11 -37 9 -96 34 -137 61 -100 17 23 140 25 149 2
3 -8 12 -15 21 -15 9 0 18 7 20 15 3 8 8 23 12 33 3 9 8 36 9 60 2 31 -1 42
-11 42 -8 0 -19 9 -25 19 -5 11 -19 23 -30 26 -11 3 -20 13 -20 21 0 10 -13
14 -50 14 -37 0 -50 -4 -50 -14z m101 -40 c15 -3 29 -13 33 -21 4 -13 -8 -15
-84 -15 -76 0 -88 2 -84 15 4 8 18 18 33 21 14 3 31 7 36 9 6 2 17 2 25 0 8
-2 27 -6 41 -9z m-113 -99 c2 -12 -3 -17 -17 -17 -12 0 -21 6 -21 13 0 31 32
34 38 4z m160 0 c2 -12 -3 -17 -17 -17 -12 0 -21 6 -21 13 0 31 32 34 38 4z"/>
<path d="M1490 1167 c0 -20 -4 -23 -28 -19 -38 5 -62 -20 -62 -63 0 -47 21
-64 80 -63 l50 0 0 84 c0 77 -2 84 -20 84 -14 0 -20 -7 -20 -23z m-2 -86 c-4
-35 -41 -37 -46 -2 -4 26 13 42 35 34 8 -3 13 -16 11 -32z"/>
<path d="M1090 1153 c-27 -34 -22 -89 11 -115 48 -39 129 -10 129 47 0 23 -4
25 -40 25 -29 0 -40 -4 -40 -15 0 -8 9 -15 20 -15 24 0 26 -15 4 -24 -23 -9
-64 20 -64 44 0 35 49 66 65 40 7 -12 55 -13 55 -2 0 21 -39 42 -78 42 -32 0
-45 -5 -62 -27z"/>
<path d="M1267 1132 c-22 -25 -21 -75 1 -95 25 -22 75 -21 95 1 22 25 21 75
-1 95 -25 22 -75 21 -95 -1z m68 -48 c0 -22 -5 -29 -20 -29 -24 0 -34 43 -13
56 21 14 33 4 33 -27z"/>
<path d="M1575 1134 c-8 -9 -15 -31 -15 -49 0 -47 21 -64 80 -63 l50 0 0 63 0
63 -50 0 c-31 1 -55 -5 -65 -14z m75 -49 c0 -23 -24 -40 -41 -29 -13 8 -11 52
4 57 21 7 37 -4 37 -28z"/>
<path d="M910 980 c0 -15 5 -20 18 -18 9 2 17 10 17 18 0 8 -8 16 -17 18 -13
2 -18 -3 -18 -18z"/>
<path d="M681 857 c-1 -47 0 -48 27 -45 23 3 27 8 27 33 0 23 -4 30 -20 30
-11 0 -23 7 -27 15 -4 8 -7 -7 -7 -33z m46 -3 c8 -21 -13 -42 -28 -27 -13 13
-5 43 11 43 6 0 13 -7 17 -16z"/>
<path d="M793 855 c0 -27 2 -38 4 -22 2 15 2 37 0 50 -2 12 -4 0 -4 -28z"/>
<path d="M998 888 c-2 -7 -1 -29 3 -48 6 -35 6 -35 8 -5 2 17 4 38 6 48 4 19
-11 24 -17 5z"/>
<path d="M1197 893 c-4 -3 -7 -24 -7 -45 0 -37 2 -39 28 -36 23 3 27 8 29 38
1 33 -9 50 -33 50 -6 0 -14 -3 -17 -7z m38 -13 c3 -6 -1 -13 -10 -16 -19 -8
-30 0 -20 15 8 14 22 14 30 1z m3 -47 c2 -8 -5 -13 -17 -13 -12 0 -21 6 -21
16 0 18 31 15 38 -3z"/>
<path d="M1273 855 c0 -27 2 -38 4 -22 2 15 2 37 0 50 -2 12 -4 0 -4 -28z"/>
<path d="M491 848 c1 -39 2 -40 8 -13 l7 30 16 -30 16 -30 14 29 13 30 6 -30
c6 -26 7 -24 8 14 1 50 -11 54 -30 10 l-13 -31 -15 31 c-20 44 -31 40 -30 -10z"/>
<path d="M847 884 c-9 -9 9 -68 21 -70 7 -1 8 0 2 3 -14 7 -13 50 2 55 8 3 6
6 -4 10 -9 4 -18 5 -21 2z"/>
<path d="M1558 885 c-2 -2 -2 -20 0 -40 3 -24 9 -35 21 -35 13 0 13 2 2 9 -8
6 -12 19 -9 35 5 24 -3 42 -14 31z"/>
<path d="M599 864 c-17 -21 0 -49 32 -49 27 0 37 28 19 50 -16 19 -34 19 -51
-1z m49 -17 c4 -22 -27 -35 -38 -16 -10 15 7 42 24 36 6 -2 12 -11 14 -20z"/>
<path d="M763 845 c0 -22 2 -30 4 -17 2 12 2 30 0 40 -3 9 -5 -1 -4 -23z"/>
<path d="M823 845 c0 -22 2 -30 4 -17 2 12 2 30 0 40 -3 9 -5 -1 -4 -23z"/>
<path d="M896 860 c4 -14 7 -37 8 -52 0 -16 2 -28 4 -28 6 0 42 93 38 98 -3 3
-10 -8 -17 -24 l-11 -29 -14 30 c-12 24 -13 25 -8 5z"/>
<path d="M1041 866 c-17 -20 -4 -56 18 -56 28 0 47 28 34 48 -14 23 -37 26
-52 8z m43 -12 c7 -19 -1 -34 -19 -34 -18 0 -28 17 -21 35 7 20 32 19 40 -1z"/>
<path d="M1111 841 c1 -34 1 -35 9 -9 4 14 10 31 13 36 4 5 0 9 -8 9 -11 0
-15 -11 -14 -36z"/>
<path d="M1298 873 c6 -2 12 -15 12 -28 0 -13 5 -27 10 -30 14 -9 12 39 -2 53
-7 7 -17 12 -22 11 -6 0 -5 -3 2 -6z"/>
<path d="M1350 865 c-6 -8 -9 -23 -5 -35 5 -15 14 -20 36 -18 25 2 29 6 29 33
0 25 -4 31 -24 33 -13 1 -29 -5 -36 -13z m44 -11 c7 -19 -1 -34 -19 -34 -18 0
-28 17 -21 35 7 20 32 19 40 -1z"/>
<path d="M1431 841 c1 -28 3 -30 6 -11 3 14 9 30 14 36 5 7 3 11 -6 11 -11 0
-15 -11 -14 -36z"/>
<path d="M1482 871 c-8 -4 -12 -19 -10 -32 2 -19 10 -25 36 -27 30 -3 32 -1
32 27 0 17 -4 31 -9 31 -5 0 -15 2 -23 5 -7 3 -19 1 -26 -4z m36 -29 c2 -14
-2 -22 -12 -22 -19 0 -29 17 -22 36 8 22 30 12 34 -14z"/>
</g>
</svg>
